<svg width="15" height="42" viewBox="0 0 15 42" fill="none" xmlns="http://www.w3.org/2000/svg">
<path d="M12 4.90909H9L9 8H6L6 4.90909H3L7.5 0L12 4.90909Z" fill="black"/>
<path fill-rule="evenodd" clip-rule="evenodd" d="M7.5 10C11.6421 10 15 13.4065 15 17.6087V24.3913C15 28.5935 11.6421 32 7.5 32C3.35786 32 0 28.5935 0 24.3913V17.6087C0 13.4065 3.35786 10 7.5 10ZM7.5 13C8.32843 13 9 13.6659 9 14.4874V19.5126C9 20.3341 8.32843 21 7.5 21C6.67157 21 6 20.3341 6 19.5126V14.4874C6 13.6659 6.67157 13 7.5 13Z" fill="black"/>
<path d="M6 37.0909H3L7.5 42L12 37.0909H9V34H6L6 37.0909Z" fill="black"/>
</svg>
